<?xml version="1.0" encoding="iso-8859-1"?>
<!-- Generator: Adobe Illustrator 17.0.0, SVG Export Plug-In . SVG Version: 6.00 Build 0)  -->
<!DOCTYPE svg PUBLIC "-//W3C//DTD SVG 1.1//EN" "http://www.w3.org/Graphics/SVG/1.1/DTD/svg11.dtd">
<svg version="1.1" id="&#x5716;&#x5C64;_1" xmlns="http://www.w3.org/2000/svg" xmlns:xlink="http://www.w3.org/1999/xlink" x="0px"
	 y="0px" width="122.74px" height="123.365px" viewBox="0 0 122.74 123.365" style="enable-background:new 0 0 122.74 123.365;"
	 xml:space="preserve">
<g>
	<circle style="fill:#EC6D6E;" cx="61.057" cy="61.683" r="61.683"/>
	<path style="fill:#FFFFFF;" d="M76.184,61.683l10.565-10.548c4.229-4.222,4.235-11.074,0.013-15.303
		c-4.222-4.229-11.074-4.235-15.303-0.013L60.877,46.383L50.656,36.18c-4.229-4.222-11.081-4.217-15.303,0.013
		c-4.222,4.229-4.217,11.081,0.013,15.303L45.57,61.683L35.366,71.87c-4.229,4.222-4.235,11.074-0.013,15.303
		c4.222,4.229,11.074,4.235,15.303,0.013l10.22-10.203l10.582,10.564c4.229,4.222,11.081,4.217,15.303-0.013
		c4.222-4.229,4.217-11.081-0.013-15.303L76.184,61.683z"/>
</g>
</svg>
