<?xml version="1.0" encoding="iso-8859-1"?>
<!-- Generator: Adobe Illustrator 17.0.0, SVG Export Plug-In . SVG Version: 6.00 Build 0)  -->
<!DOCTYPE svg PUBLIC "-//W3C//DTD SVG 1.1//EN" "http://www.w3.org/Graphics/SVG/1.1/DTD/svg11.dtd">
<svg version="1.1" id="&#x5716;&#x5C64;_1" xmlns="http://www.w3.org/2000/svg" xmlns:xlink="http://www.w3.org/1999/xlink" x="0px"
	 y="0px" width="106.571px" height="106.57px" viewBox="0 0 106.571 106.57" style="enable-background:new 0 0 106.571 106.57;"
	 xml:space="preserve">
<g>
	<g>
		<path style="fill:none;" d="M53.208,32.829L38.392,61.176v0.463c0,4.293,1.466,7.937,4.401,10.932
			c2.934,2.996,6.408,4.494,10.423,4.494c2.563,0,4.902-0.587,7.018-1.761c2.115-1.173,3.968-2.98,5.559-5.42
			c1.59-2.439,2.386-5.188,2.386-8.245v-0.518L53.581,32.829H53.208z"/>
		<path style="fill:#FFFFFF;" d="M77.35,25.762c-0.402-0.355-1.065-0.533-1.992-0.533h-14.36c-0.926,0-1.591,0.178-1.992,0.533
			c-0.402,0.355-0.602,0.827-0.602,1.413c0,0.587,0.201,1.058,0.602,1.413c0.401,0.355,1.065,0.533,1.992,0.533h7.18v21.304
			L57.127,28.938h-7.278L38.392,50.843V29.12h7.18c0.926,0,1.59-0.177,1.992-0.533c0.401-0.355,0.602-0.826,0.602-1.413
			c0-0.586-0.201-1.058-0.602-1.413c-0.402-0.355-1.065-0.533-1.992-0.533h-14.36c-0.926,0-1.575,0.155-1.946,0.463
			c-0.433,0.402-0.648,0.896-0.648,1.482c0,0.587,0.2,1.058,0.602,1.413c0.401,0.355,1.065,0.533,1.992,0.533h3.289v29.163v3.357
			c0,1.924,0.26,3.761,0.767,5.514c0.47,1.624,1.153,3.176,2.058,4.654c1.883,3.073,4.169,5.367,6.856,6.879
			c2.687,1.513,5.759,2.27,9.218,2.27c5.157,0,9.558-1.853,13.202-5.559c2.318-2.358,3.896-5.073,4.739-8.143
			c0.482-1.756,0.727-3.626,0.727-5.615v-3.651V29.12h3.289c0.926,0,1.59-0.177,1.992-0.533c0.401-0.355,0.602-0.826,0.602-1.413
			C77.952,26.588,77.751,26.117,77.35,25.762z M68.178,61.639c0,3.057-0.795,5.806-2.386,8.245c-1.591,2.44-3.444,4.247-5.559,5.42
			c-2.116,1.174-4.455,1.761-7.018,1.761c-4.015,0-7.489-1.498-10.423-4.494c-2.934-2.995-4.401-6.64-4.401-10.932v-0.463
			l14.816-28.348h0.373l14.597,28.292V61.639z"/>
	</g>
	<path style="fill:#FFFFFF;" d="M89.777,78.353c-0.269-0.324-0.611-0.556-1.027-0.695c-0.414-0.139-1.098-0.209-2.053-0.209h-4.043
		l-8.544-16.336v0.563v3.357c0,1.79-0.228,3.503-0.668,5.145l3.8,7.271h-7.519H36.846h-5.408h-2.112l3.8-7.271
		c-0.44-1.642-0.668-3.355-0.668-5.145v-3.357v-0.563L23.915,77.45h-4.043c-0.954,0-1.639,0.07-2.053,0.209
		c-0.415,0.139-0.757,0.371-1.027,0.695c-0.27,0.324-0.404,0.672-0.404,1.042c0,0.371,0.134,0.718,0.404,1.042
		c0.269,0.324,0.611,0.556,1.027,0.695c0.414,0.139,1.098,0.209,2.053,0.209h11.567h7.903h27.887h10.724h8.746
		c0.954,0,1.639-0.069,2.053-0.209c0.415-0.139,0.757-0.371,1.027-0.695c0.27-0.324,0.404-0.672,0.404-1.042
		C90.182,79.025,90.047,78.677,89.777,78.353z"/>
</g>
<g>
	<path style="fill:#FFFFFF;" d="M53.285,106.57C23.904,106.57,0,82.667,0,53.285S23.904,0,53.285,0s53.286,23.904,53.286,53.285
		S82.667,106.57,53.285,106.57z M53.285,7C27.764,7,7,27.764,7,53.285C7,78.806,27.764,99.57,53.285,99.57
		c25.522,0,46.286-20.764,46.286-46.285C99.571,27.764,78.807,7,53.285,7z"/>
</g>
</svg>
