<?xml version="1.0" encoding="iso-8859-1"?>
<!-- Generator: Adobe Illustrator 17.0.0, SVG Export Plug-In . SVG Version: 6.00 Build 0)  -->
<!DOCTYPE svg PUBLIC "-//W3C//DTD SVG 1.1//EN" "http://www.w3.org/Graphics/SVG/1.1/DTD/svg11.dtd">
<svg version="1.1" id="&#x5716;&#x5C64;_1" xmlns="http://www.w3.org/2000/svg" xmlns:xlink="http://www.w3.org/1999/xlink" x="0px"
	 y="0px" width="547.402px" height="257.875px" viewBox="0 0 547.402 257.875" style="enable-background:new 0 0 547.402 257.875;"
	 xml:space="preserve">
<g>
	<g>
		<path style="fill:#C9CACA;" d="M62.274,246.221c-0.209-0.625-0.391-1.432-0.547-2.422c-0.053-0.104-0.078-0.182-0.078-0.234
			c1.822-2.76,3.203-5.754,4.141-8.984l2.188,0.547c-0.574,1.562-1.172,3.074-1.797,4.531v13.594h-2.109v-9.766
			C63.497,244.477,62.899,245.389,62.274,246.221z M79.149,242.549c-0.105,0-0.261-0.051-0.469-0.156
			c-0.73-0.156-1.25-0.26-1.562-0.312l1.094-2.812h-7.188c-0.574,1.199-1.303,2.449-2.188,3.75
			c-0.469-0.469-1.016-0.938-1.641-1.406c1.562-2.082,2.708-4.375,3.438-6.875l2.188,0.312c-0.312,0.834-0.625,1.59-0.938,2.266
			h8.438v1.875L79.149,242.549z M69.149,250.44c-0.521-0.26-1.172-0.547-1.953-0.859c0.833-1.613,1.744-3.775,2.734-6.484
			l1.875,0.625C71.18,245.546,70.294,247.784,69.149,250.44z M70.165,253.096c-0.105-0.73-0.234-1.406-0.391-2.031
			c0.625,0,1.301,0,2.031,0c0.833,0.051,1.223-0.312,1.172-1.094v-9.297h2.109v9.766c0.051,1.719-0.781,2.578-2.5,2.578
			c-0.209,0-0.6,0.025-1.172,0.078C70.841,253.096,70.424,253.096,70.165,253.096z M78.68,250.362
			c-0.053-0.207-0.156-0.494-0.312-0.859c-0.938-2.5-1.693-4.4-2.266-5.703l1.953-0.625c0.729,1.824,1.614,3.984,2.656,6.484
			L78.68,250.362z"/>
		<path style="fill:#C9CACA;" d="M84.43,253.018v-15.312h2.109c0.156-0.572,0.364-1.354,0.625-2.344
			c0.051-0.312,0.104-0.547,0.156-0.703l2.188,0.312c-0.209,0.938-0.469,1.85-0.781,2.734h3.359v15.234h-1.953v-1.406h-3.672v1.484
			H84.43z M86.462,239.659v4.062h3.672v-4.062H86.462z M86.462,245.674v4.062h3.672v-4.062H86.462z M94.977,252.94
			c-0.105-0.781-0.234-1.434-0.391-1.953c0.312,0,0.781,0,1.406,0c0.676,0.053,1.197,0.078,1.562,0.078
			c1.406,0,2.109-0.676,2.109-2.031c0.051-0.832,0.104-2.604,0.156-5.312c0.051-1.926,0.078-3.281,0.078-4.062h-4.297
			c-0.469,1.043-0.938,2.006-1.406,2.891c-0.105-0.051-0.261-0.156-0.469-0.312c-0.261-0.156-0.703-0.391-1.328-0.703
			c1.197-2.188,2.135-4.479,2.812-6.875l2.109,0.469c-0.053,0.209-0.156,0.496-0.312,0.859c-0.209,0.73-0.417,1.303-0.625,1.719
			h5.625c-0.105,5.678-0.209,9.584-0.312,11.719c0.051,2.344-1.068,3.488-3.359,3.438C97.294,252.913,96.174,252.94,94.977,252.94z
			 M96.618,247.706c-0.886-1.354-1.85-2.734-2.891-4.141l1.641-1.016c0.938,1.094,1.953,2.422,3.047,3.984L96.618,247.706z"/>
		<path style="fill:#C9CACA;" d="M105.883,240.206v-1.875h2.266v-3.672h1.953v3.672h1.875v1.875h-1.875v1.797
			c0.729,0.625,1.51,1.328,2.344,2.109l-1.094,1.562l-1.25-1.406v9.062h-1.953v-8.984c-0.781,2.031-1.459,3.516-2.031,4.453
			c-0.053-0.26-0.156-0.703-0.312-1.328c-0.105-0.625-0.209-1.066-0.312-1.328c1.041-1.613,1.9-3.594,2.578-5.938H105.883z
			 M123.462,253.096c-2.031-0.781-3.777-1.719-5.234-2.812c-1.406,1.145-3.281,2.16-5.625,3.047c0-0.053-0.027-0.105-0.078-0.156
			c-0.417-0.73-0.781-1.303-1.094-1.719c2.291-0.625,4.088-1.484,5.391-2.578c-0.99-1.145-1.85-2.604-2.578-4.375l1.719-0.781
			c0.676,1.562,1.432,2.84,2.266,3.828c0.781-0.885,1.484-2.188,2.109-3.906l1.875,0.625c-0.73,1.928-1.589,3.465-2.578,4.609
			c1.301,0.99,2.994,1.746,5.078,2.266c-0.105,0.207-0.312,0.547-0.625,1.016C123.825,252.575,123.618,252.887,123.462,253.096z
			 M113.227,244.815c-0.105-0.104-0.234-0.26-0.391-0.469c-0.365-0.469-0.625-0.781-0.781-0.938
			c1.354-1.094,2.682-2.369,3.984-3.828l1.406,1.25C115.935,242.446,114.528,243.774,113.227,244.815z M112.758,239.19v-1.875h4.766
			v-2.656h1.953v2.656h4.844v1.875H112.758z M123.383,244.659c-1.406-1.301-2.812-2.578-4.219-3.828l1.25-1.25
			c1.562,1.25,2.942,2.449,4.141,3.594L123.383,244.659z"/>
		<path style="fill:#C9CACA;" d="M128.587,253.331V235.44h17.188v17.891h-1.953v-0.859H130.54v0.859H128.587z M130.54,237.003
			v14.062h13.281v-14.062H130.54z M132.415,245.909v-3.359h9.453v3.281c0.051,0,0.078-0.025,0.078-0.078h0.078l1.016,0.938
			c-0.574,0.418-1.172,0.859-1.797,1.328l2.031,1.016l-0.859,1.172c-1.25-0.729-2.812-1.535-4.688-2.422l0.781-1.094l1.484,0.703
			c0.364-0.26,0.885-0.703,1.562-1.328c0.104-0.051,0.182-0.104,0.234-0.156h-4.062c-0.261,0.312-0.521,0.547-0.781,0.703v2.578
			c0.051,0,0.129,0,0.234,0c0.572-0.051,1.275-0.156,2.109-0.312c-0.053,0.312-0.078,0.703-0.078,1.172
			c-2.553,0.262-4.428,0.496-5.625,0.703l-0.234-1.172c0.625-0.104,1.25-0.182,1.875-0.234v-1.484
			c-1.042,0.625-2.214,1.199-3.516,1.719c-0.053-0.051-0.131-0.182-0.234-0.391c-0.261-0.469-0.469-0.807-0.625-1.016
			c1.926-0.572,3.541-1.328,4.844-2.266H132.415z M132.18,239.503v-1.172h4.062v-1.25h1.797v1.25h4.062v1.172h-4.062v1.016h5v1.172
			h-11.719v-1.172h4.922v-1.016H132.18z M134.212,243.643v1.172h5.938v-1.172H134.212z"/>
		<path style="fill:#C9CACA;" d="M160.821,240.362v2.578c0.051,2.031-0.808,3.516-2.578,4.453l-0.703-0.859
			c1.301-0.781,1.953-1.848,1.953-3.203h-1.562v-2.969H160.821z"/>
		<path style="fill:#C9CACA;" d="M172.274,246.221c-0.209-0.625-0.391-1.432-0.547-2.422c-0.053-0.104-0.078-0.182-0.078-0.234
			c1.822-2.76,3.203-5.754,4.141-8.984l2.188,0.547c-0.574,1.562-1.172,3.074-1.797,4.531v13.594h-2.109v-9.766
			C173.497,244.477,172.899,245.389,172.274,246.221z M189.149,242.549c-0.105,0-0.261-0.051-0.469-0.156
			c-0.73-0.156-1.25-0.26-1.562-0.312l1.094-2.812h-7.188c-0.574,1.199-1.303,2.449-2.188,3.75
			c-0.469-0.469-1.016-0.938-1.641-1.406c1.562-2.082,2.708-4.375,3.438-6.875l2.188,0.312c-0.312,0.834-0.625,1.59-0.938,2.266
			h8.438v1.875L189.149,242.549z M179.149,250.44c-0.521-0.26-1.172-0.547-1.953-0.859c0.833-1.613,1.744-3.775,2.734-6.484
			l1.875,0.625C181.18,245.546,180.294,247.784,179.149,250.44z M180.165,253.096c-0.105-0.73-0.234-1.406-0.391-2.031
			c0.625,0,1.301,0,2.031,0c0.833,0.051,1.223-0.312,1.172-1.094v-9.297h2.109v9.766c0.051,1.719-0.781,2.578-2.5,2.578
			c-0.209,0-0.6,0.025-1.172,0.078C180.841,253.096,180.424,253.096,180.165,253.096z M188.68,250.362
			c-0.053-0.207-0.156-0.494-0.312-0.859c-0.938-2.5-1.693-4.4-2.266-5.703l1.953-0.625c0.729,1.824,1.614,3.984,2.656,6.484
			L188.68,250.362z"/>
		<path style="fill:#C9CACA;" d="M194.118,238.643v-1.875h7.969v-2.188h2.188v2.188h7.969v1.875h-7.969v5.703
			c2.031,2.709,4.844,4.662,8.438,5.859c-0.469,0.625-0.834,1.25-1.094,1.875c-3.23-1.25-5.678-2.969-7.344-5.156v6.406h-2.188
			v-6.406c-1.771,2.188-4.193,3.959-7.266,5.312c-0.365-0.625-0.756-1.223-1.172-1.797c3.594-1.354,6.406-3.385,8.438-6.094v-5.703
			H194.118z M199.977,245.362c-0.521-0.625-1.225-1.354-2.109-2.188c-0.625,1.043-1.433,2.084-2.422,3.125
			c-0.417-0.469-0.859-0.938-1.328-1.406c1.666-1.562,2.786-3.41,3.359-5.547l1.953,0.234c-0.053,0.312-0.209,0.781-0.469,1.406
			c-0.105,0.262-0.183,0.443-0.234,0.547c0.729,0.574,1.588,1.328,2.578,2.266L199.977,245.362z M210.837,245.909
			c-0.209-0.207-0.521-0.52-0.938-0.938c-0.781-0.832-1.406-1.457-1.875-1.875c-0.469,0.678-1.016,1.381-1.641,2.109
			c-0.469-0.469-0.938-0.91-1.406-1.328c1.301-1.197,2.188-2.707,2.656-4.531l1.953,0.234c-0.156,0.678-0.391,1.328-0.703,1.953
			c0.52,0.418,1.25,1.043,2.188,1.875c0.469,0.418,0.833,0.73,1.094,0.938L210.837,245.909z"/>
		<path style="fill:#C9CACA;" d="M217.133,242.862l-0.625-1.406h1.094c0.781-0.781,1.536-1.641,2.266-2.578
			c-0.209,0-0.469,0.027-0.781,0.078c-0.312,0-0.521,0-0.625,0l-0.625-1.406h1.484c1.458-0.988,2.812-2.004,4.062-3.047l2.422,0.469
			c-0.417,0.312-1.172,0.834-2.266,1.562c-0.574,0.418-0.99,0.73-1.25,0.938c1.666,0,3.697-0.051,6.094-0.156l-1.641-1.094
			l1.406-0.859c1.77,1.043,3.411,2.059,4.922,3.047l-1.562,1.016l-1.172-0.781c-2.969,0-5.99,0.053-9.062,0.156l-1.328,0.078
			l1.797,0.625l-1.953,1.875l3.594-0.156l-1.172-1.016l1.328-0.703c0.104,0.105,0.26,0.234,0.469,0.391
			c0.625,0.521,1.094,0.938,1.406,1.25c0.781-0.676,1.588-1.484,2.422-2.422l1.719,0.625c-0.209,0.209-0.574,0.547-1.094,1.016
			c-0.521,0.469-0.886,0.809-1.094,1.016c0.729,0,1.822-0.051,3.281-0.156c-0.105-0.156-0.287-0.338-0.547-0.547
			c-0.156-0.156-0.261-0.26-0.312-0.312l1.328-0.781c0.312,0.262,0.833,0.73,1.562,1.406c0.676,0.625,1.172,1.094,1.484,1.406
			l-1.406,0.938l-0.781-0.859c-0.521,0-1.328,0.027-2.422,0.078c-1.094,0-1.875,0.027-2.344,0.078
			c1.719,1.094,4.192,1.953,7.422,2.578c-0.365,0.625-0.625,1.225-0.781,1.797c-3.646-0.832-6.537-2.135-8.672-3.906
			c-1.98,1.562-4.844,2.865-8.594,3.906c-0.053-0.156-0.183-0.416-0.391-0.781c-0.209-0.469-0.365-0.807-0.469-1.016
			c2.916-0.572,5.391-1.457,7.422-2.656c-1.303,0-2.683,0.053-4.141,0.156c-0.261,0-0.574,0.027-0.938,0.078
			C217.653,242.784,217.341,242.811,217.133,242.862z M217.602,253.487c-0.209-0.574-0.417-1.121-0.625-1.641
			c5.416-0.469,10.208-1.666,14.375-3.594l1.016,1.484C227.888,251.716,222.966,252.966,217.602,253.487z M218.696,250.753
			c-0.156-0.416-0.391-0.859-0.703-1.328c4.166-0.676,7.812-1.719,10.938-3.125l1.016,1.172
			C226.612,248.93,222.862,250.024,218.696,250.753z M219.477,248.096c-0.156-0.312-0.391-0.729-0.703-1.25
			c3.125-0.729,5.703-1.535,7.734-2.422l1.016,1.172C225.232,246.534,222.549,247.368,219.477,248.096z"/>
		<path style="fill:#C9CACA;" d="M250.852,241.065v-1.562h2.578v-2.188h-3.047v-1.719h4.922v11.406h1.094v1.797h-18.516v-1.797h1.25
			v-10.781c1.197-0.26,2.604-0.676,4.219-1.25l0.703,1.484c-1.094,0.418-2.109,0.73-3.047,0.938v1.953h2.891v1.641h-2.891v2.188
			h2.891v1.562h-2.891v2.266h3.75v-3.984h1.797v3.984h1.641v-5h-3.438v-7.188h1.875v1.953h3.359v1.641h-3.359v1.953h3.359v6.641
			h3.438v-2.188h-2.578v-1.562h2.578v-2.188H250.852z M238.977,253.331c-0.156-0.365-0.469-0.938-0.938-1.719
			c1.926-0.521,4.088-1.301,6.484-2.344l1.016,1.641c-0.417,0.105-1.042,0.338-1.875,0.703
			C241.581,252.444,240.018,253.018,238.977,253.331z M255.462,253.331c-2.136-0.938-4.375-1.719-6.719-2.344l0.781-1.641
			c1.041,0.312,2.525,0.809,4.453,1.484c1.041,0.312,1.822,0.547,2.344,0.703L255.462,253.331z"/>
		<path style="fill:#C9CACA;" d="M270.821,240.362v2.578c0.051,2.031-0.808,3.516-2.578,4.453l-0.703-0.859
			c1.301-0.781,1.953-1.848,1.953-3.203h-1.562v-2.969H270.821z"/>
		<path style="fill:#C9CACA;" d="M281.649,244.815v-2.344h18.984v2.344H281.649z"/>
		<path style="fill:#C9CACA;" d="M305.524,253.331v-9.688c-0.104,0.156-0.261,0.418-0.469,0.781c-0.417,0.73-0.729,1.25-0.938,1.562
			c-0.053-0.156-0.104-0.391-0.156-0.703c-0.156-0.938-0.261-1.613-0.312-2.031c1.25-2.291,2.266-5.156,3.047-8.594l1.953,0.391
			c-0.312,1.459-0.756,2.918-1.328,4.375v13.906H305.524z M309.118,253.331v-17.656h12.812v17.656h-1.875v-0.938h-9.062v0.938
			H309.118z M310.993,237.471v13.281h9.062v-13.281H310.993z M311.774,241.456v-1.562h2.891v-1.797h1.719v1.797h2.891v1.562h-2.891
			v1.953h2.188v5.703h-6.094v-5.703h2.188v-1.953H311.774z M314.04,244.971v2.578h2.891v-2.578H314.04z"/>
		<path style="fill:#C9CACA;" d="M327.133,253.409l-0.781-1.953c0.416-0.053,0.781-0.156,1.094-0.312V235.44h15.703v6.484h-5.703
			c0.104,1.043,0.234,1.953,0.391,2.734h6.641v1.953h-6.172c0.416,1.406,0.963,2.553,1.641,3.438
			c0.521,0.678,0.989,1.016,1.406,1.016c0.416,0,0.703-0.338,0.859-1.016c0.104-0.416,0.26-1.197,0.469-2.344
			c0.625,0.312,1.275,0.547,1.953,0.703c-0.209,1.199-0.443,2.162-0.703,2.891c-0.469,1.25-1.25,1.9-2.344,1.953
			c-1.354,0-2.475-0.625-3.359-1.875c-0.99-1.197-1.719-2.785-2.188-4.766h-6.406v4.062c1.927-0.625,3.516-1.145,4.766-1.562
			c0,0.73,0,1.381,0,1.953C332.263,251.637,329.841,252.419,327.133,253.409z M329.633,237.315v2.734h11.406v-2.734H329.633z
			 M335.649,244.659c-0.156-0.781-0.261-1.691-0.312-2.734h-5.703v2.734H335.649z"/>
		<path style="fill:#C9CACA;" d="M348.743,240.049v-2.031h16.875v2.031h-7.344v3.984h6.484v2.031h-6.484v4.375h8.125v1.953h-18.438
			v-1.953h8.125v-4.375h-6.484v-2.031h6.484v-3.984H348.743z M356.633,238.018c-0.417-1.145-0.834-2.135-1.25-2.969l2.266-0.469
			c0.312,0.678,0.729,1.641,1.25,2.891L356.633,238.018z"/>
		<path style="fill:#C9CACA;" d="M370.43,253.018v-15.312h2.109c0.156-0.572,0.364-1.354,0.625-2.344
			c0.052-0.312,0.104-0.547,0.156-0.703l2.188,0.312c-0.209,0.938-0.469,1.85-0.781,2.734h3.359v15.234h-1.953v-1.406h-3.672v1.484
			H370.43z M372.462,239.659v4.062h3.672v-4.062H372.462z M372.462,245.674v4.062h3.672v-4.062H372.462z M380.977,252.94
			c-0.104-0.781-0.234-1.434-0.391-1.953c0.312,0,0.781,0,1.406,0c0.677,0.053,1.197,0.078,1.562,0.078
			c1.406,0,2.109-0.676,2.109-2.031c0.052-0.832,0.104-2.604,0.156-5.312c0.052-1.926,0.078-3.281,0.078-4.062h-4.297
			c-0.469,1.043-0.938,2.006-1.406,2.891c-0.104-0.051-0.261-0.156-0.469-0.312c-0.261-0.156-0.703-0.391-1.328-0.703
			c1.197-2.188,2.135-4.479,2.812-6.875l2.109,0.469c-0.053,0.209-0.156,0.496-0.312,0.859c-0.209,0.73-0.417,1.303-0.625,1.719
			h5.625c-0.104,5.678-0.209,9.584-0.312,11.719c0.052,2.344-1.068,3.488-3.359,3.438
			C383.295,252.913,382.174,252.94,380.977,252.94z M382.618,247.706c-0.886-1.354-1.85-2.734-2.891-4.141l1.641-1.016
			c0.938,1.094,1.953,2.422,3.047,3.984L382.618,247.706z"/>
		<path style="fill:#C9CACA;" d="M391.883,240.206v-1.875h2.266v-3.672h1.953v3.672h1.875v1.875h-1.875v1.797
			c0.729,0.625,1.51,1.328,2.344,2.109l-1.094,1.562l-1.25-1.406v9.062h-1.953v-8.984c-0.781,2.031-1.459,3.516-2.031,4.453
			c-0.053-0.26-0.156-0.703-0.312-1.328c-0.104-0.625-0.209-1.066-0.312-1.328c1.041-1.613,1.9-3.594,2.578-5.938H391.883z
			 M409.462,253.096c-2.031-0.781-3.776-1.719-5.234-2.812c-1.406,1.145-3.281,2.16-5.625,3.047c0-0.053-0.026-0.105-0.078-0.156
			c-0.417-0.73-0.781-1.303-1.094-1.719c2.291-0.625,4.088-1.484,5.391-2.578c-0.99-1.145-1.85-2.604-2.578-4.375l1.719-0.781
			c0.677,1.562,1.432,2.84,2.266,3.828c0.781-0.885,1.484-2.188,2.109-3.906l1.875,0.625c-0.729,1.928-1.589,3.465-2.578,4.609
			c1.302,0.99,2.994,1.746,5.078,2.266c-0.104,0.207-0.312,0.547-0.625,1.016C409.826,252.575,409.618,252.887,409.462,253.096z
			 M399.227,244.815c-0.104-0.104-0.234-0.26-0.391-0.469c-0.365-0.469-0.625-0.781-0.781-0.938
			c1.354-1.094,2.682-2.369,3.984-3.828l1.406,1.25C401.935,242.446,400.529,243.774,399.227,244.815z M398.758,239.19v-1.875h4.766
			v-2.656h1.953v2.656h4.844v1.875H398.758z M409.383,244.659c-1.406-1.301-2.812-2.578-4.219-3.828l1.25-1.25
			c1.562,1.25,2.942,2.449,4.141,3.594L409.383,244.659z"/>
		<path style="fill:#C9CACA;" d="M414.587,253.331V235.44h17.188v17.891h-1.953v-0.859H416.54v0.859H414.587z M416.54,237.003
			v14.062h13.281v-14.062H416.54z M418.415,245.909v-3.359h9.453v3.281c0.052,0,0.078-0.025,0.078-0.078h0.078l1.016,0.938
			c-0.573,0.418-1.172,0.859-1.797,1.328l2.031,1.016l-0.859,1.172c-1.25-0.729-2.812-1.535-4.688-2.422l0.781-1.094l1.484,0.703
			c0.364-0.26,0.885-0.703,1.562-1.328c0.104-0.051,0.182-0.104,0.234-0.156h-4.062c-0.261,0.312-0.521,0.547-0.781,0.703v2.578
			c0.052,0,0.13,0,0.234,0c0.572-0.051,1.275-0.156,2.109-0.312c-0.053,0.312-0.078,0.703-0.078,1.172
			c-2.553,0.262-4.428,0.496-5.625,0.703l-0.234-1.172c0.625-0.104,1.25-0.182,1.875-0.234v-1.484
			c-1.042,0.625-2.214,1.199-3.516,1.719c-0.053-0.051-0.131-0.182-0.234-0.391c-0.261-0.469-0.469-0.807-0.625-1.016
			c1.927-0.572,3.541-1.328,4.844-2.266H418.415z M418.18,239.503v-1.172h4.062v-1.25h1.797v1.25h4.062v1.172h-4.062v1.016h5v1.172
			h-11.719v-1.172h4.922v-1.016H418.18z M420.212,243.643v1.172h5.938v-1.172H420.212z"/>
		<path style="fill:#C9CACA;" d="M436.743,237.549v-2.031h16.875v2.031h-7.344v7.422h8.281v2.031h-8.281v6.328h-2.188v-6.328h-8.281
			v-2.031h8.281v-7.422H436.743z M440.727,244.034c-1.094-1.406-2.24-2.785-3.438-4.141l1.562-1.25
			c1.25,1.303,2.422,2.656,3.516,4.062L440.727,244.034z M449.321,244.112l-1.562-1.328c1.146-1.145,2.344-2.525,3.594-4.141
			l1.641,1.172C451.795,241.327,450.571,242.758,449.321,244.112z"/>
		<path style="fill:#C9CACA;" d="M459.133,243.018l-1.016-2.031l2.109-0.078c2.083-2.238,3.828-4.375,5.234-6.406l2.344,1.016
			c-1.042,1.25-2.656,3.021-4.844,5.312c0.989-0.051,2.474-0.129,4.453-0.234c1.927-0.051,3.385-0.104,4.375-0.156l-2.344-2.344
			l1.562-1.172c2.188,2.031,4.062,3.881,5.625,5.547l-1.719,1.328c-0.156-0.156-0.391-0.416-0.703-0.781
			c-0.312-0.312-0.547-0.547-0.703-0.703c-3.438,0.053-7.344,0.184-11.719,0.391C460.696,242.758,459.81,242.862,459.133,243.018z
			 M459.993,253.331v-8.75h14.375v8.75h-2.188v-1.172h-10.078v1.172H459.993z M462.102,246.534v3.828h10.078v-3.828H462.102z"/>
		<path style="fill:#C9CACA;" d="M485.977,244.034c0.156-1.926,1.224-2.969,3.203-3.125c1.979,0.156,3.047,1.199,3.203,3.125
			c-0.156,1.98-1.225,3.047-3.203,3.203C487.201,247.081,486.133,246.014,485.977,244.034z M487.227,244.034
			c0.104,1.199,0.755,1.85,1.953,1.953c1.197-0.104,1.849-0.754,1.953-1.953c-0.104-1.145-0.756-1.77-1.953-1.875
			C487.982,242.264,487.331,242.889,487.227,244.034z"/>
	</g>
	<g>
		<g>
			<path style="fill:#32ABE2;" d="M108.511,106.568c0-36.784,19.513-69.007,48.751-86.891
				c-15.446-9.448-33.604-14.895-53.035-14.895C48.012,4.782,2.441,50.353,2.441,106.568s45.571,101.787,101.787,101.787
				c19.432,0,37.59-5.448,53.035-14.895C128.025,175.576,108.511,143.352,108.511,106.568z"/>
		</g>
		<g>
			<path style="fill:#7BCCEE;" d="M206.014,106.568c0-36.784-19.513-69.007-48.751-86.891
				c-29.238,17.884-48.751,50.108-48.751,86.891c0,36.784,19.513,69.007,48.751,86.891
				C186.501,175.576,206.014,143.352,206.014,106.568z"/>
		</g>
	</g>
	<g>
		<path style="fill:#32ABE2;" d="M246.431,46.211h7.911v47.79c0,5.67,0.107,9.203,0.323,10.603c0.395,3.121,1.31,5.731,2.744,7.83
			s3.642,3.857,6.62,5.274c2.978,1.418,5.974,2.126,8.987,2.126c2.618,0,5.13-0.556,7.534-1.669
			c2.403-1.111,4.413-2.654,6.028-4.628c1.614-1.973,2.798-4.359,3.552-7.158c0.538-2.009,0.807-6.135,0.807-12.378v-47.79h7.911
			v47.79c0,7.069-0.69,12.782-2.071,17.142c-1.382,4.358-4.145,8.153-8.288,11.382c-4.144,3.229-9.158,4.844-15.042,4.844
			c-6.387,0-11.858-1.525-16.414-4.574c-4.558-3.05-7.607-7.086-9.149-12.109c-0.969-3.085-1.453-8.646-1.453-16.684V46.211z"/>
		<path style="fill:#32ABE2;" d="M311.549,66.823h8.019l19.654,42.683l19.417-42.683h8.073l-26.802,58.554h-1.398L311.549,66.823z"
			/>
		<path style="fill:#32ABE2;" d="M405.891,65.316c9.021,0,16.497,3.266,22.428,9.795c5.392,5.956,8.087,13.006,8.087,21.15
			c0,8.181-2.849,15.329-8.545,21.446c-5.697,6.117-13.021,9.176-21.97,9.176c-8.985,0-16.326-3.059-22.022-9.176
			c-5.697-6.117-8.546-13.266-8.546-21.446c0-8.108,2.695-15.141,8.087-21.097C389.34,68.599,396.835,65.316,405.891,65.316z
			 M405.865,72.689c-6.265,0-11.648,2.314-16.148,6.942c-4.501,4.629-6.751,10.226-6.751,16.791c0,4.234,1.025,8.181,3.078,11.84
			c2.052,3.66,4.824,6.485,8.317,8.477c3.492,1.991,7.327,2.987,11.504,2.987c4.176,0,8.01-0.996,11.503-2.987
			c3.492-1.991,6.265-4.816,8.317-8.477c2.052-3.659,3.079-7.605,3.079-11.84c0-6.565-2.26-12.162-6.778-16.791
			C417.466,75.004,412.093,72.689,405.865,72.689z"/>
		<path style="fill:#32ABE2;" d="M456.911,45.081h7.535v21.742h11.947v6.512h-11.947v52.042h-7.535V73.335h-10.278v-6.512h10.278
			V45.081z"/>
		<path style="fill:#32ABE2;" d="M536.992,105.949l6.351,3.336c-2.083,4.091-4.488,7.392-7.219,9.902
			c-2.729,2.512-5.799,4.423-9.211,5.732c-3.412,1.309-7.272,1.964-11.582,1.964c-9.552,0-17.022-3.13-22.408-9.392
			c-5.387-6.26-8.08-13.337-8.08-21.23c0-7.427,2.28-14.047,6.841-19.858c5.781-7.391,13.521-11.087,23.217-11.087
			c9.983,0,17.955,3.786,23.916,11.355c4.237,5.347,6.392,12.02,6.464,20.021h-52.688c0.143,6.801,2.316,12.376,6.52,16.726
			c4.203,4.349,9.394,6.523,15.572,6.523c2.981,0,5.882-0.518,8.702-1.555c2.819-1.036,5.217-2.413,7.192-4.128
			C532.555,112.543,534.693,109.773,536.992,105.949z M536.992,90.18c-1.006-4.019-2.47-7.229-4.392-9.634
			c-1.923-2.403-4.464-4.341-7.625-5.812c-3.161-1.471-6.484-2.206-9.968-2.206c-5.748,0-10.688,1.848-14.818,5.543
			c-3.018,2.69-5.3,6.728-6.843,12.109H536.992z"/>
	</g>
	<g>
		<path style="fill:#32ABE2;" d="M247.279,162.708v-3.375h4.078v-6.609h3.516v6.609h3.375v3.375h-3.375v3.234
			c1.312,1.125,2.718,2.391,4.219,3.797l-1.969,2.812l-2.25-2.531v16.312h-3.516v-16.172c-1.406,3.656-2.626,6.328-3.656,8.016
			c-0.095-0.468-0.281-1.266-0.562-2.391c-0.189-1.125-0.376-1.92-0.562-2.391c1.874-2.904,3.421-6.469,4.641-10.688H247.279z
			 M278.92,185.911c-3.656-1.406-6.798-3.094-9.421-5.062c-2.531,2.061-5.906,3.889-10.125,5.484c0-0.095-0.049-0.189-0.141-0.281
			c-0.752-1.314-1.406-2.345-1.969-3.094c4.124-1.125,7.358-2.672,9.703-4.641c-1.782-2.061-3.329-4.687-4.641-7.875l3.094-1.406
			c1.217,2.812,2.577,5.111,4.078,6.891c1.406-1.593,2.672-3.938,3.797-7.031l3.375,1.125c-1.314,3.47-2.861,6.236-4.64,8.297
			c2.341,1.782,5.389,3.143,9.14,4.078c-0.189,0.373-0.562,0.984-1.125,1.828C279.574,184.972,279.201,185.535,278.92,185.911z
			 M260.498,171.005c-0.189-0.187-0.422-0.468-0.703-0.844c-0.657-0.844-1.125-1.406-1.406-1.688
			c2.437-1.969,4.827-4.265,7.172-6.891l2.531,2.25C265.371,166.74,262.84,169.131,260.498,171.005z M259.654,160.88v-3.375h8.578
			v-4.781h3.516v4.781h8.718v3.375H259.654z M278.779,170.723c-2.531-2.342-5.062-4.641-7.593-6.891l2.25-2.25
			c2.812,2.25,5.294,4.408,7.453,6.469L278.779,170.723z"/>
		<path style="fill:#32ABE2;" d="M291.745,186.333V154.13h30.938v32.203h-3.516v-1.547H295.26v1.547H291.745z M295.26,156.942
			v25.312h23.906v-25.312H295.26z M298.635,172.973v-6.047h17.016v5.906c0.092,0,0.141-0.046,0.141-0.141h0.141l1.828,1.688
			c-1.033,0.752-2.109,1.547-3.234,2.391l3.656,1.828l-1.547,2.109c-2.25-1.312-5.062-2.764-8.438-4.359l1.406-1.969l2.672,1.266
			c0.654-0.468,1.593-1.266,2.812-2.391c0.187-0.092,0.327-0.187,0.422-0.281h-7.312c-0.471,0.562-0.938,0.984-1.406,1.266v4.641
			c0.092,0,0.232,0,0.422,0c1.03-0.092,2.296-0.281,3.797-0.562c-0.095,0.562-0.141,1.266-0.141,2.109
			c-4.595,0.471-7.97,0.893-10.125,1.266l-0.422-2.109c1.125-0.187,2.25-0.327,3.375-0.422v-2.672
			c-1.877,1.125-3.986,2.158-6.328,3.094c-0.095-0.092-0.235-0.327-0.422-0.703c-0.471-0.844-0.844-1.452-1.125-1.828
			c3.467-1.03,6.374-2.391,8.719-4.078H298.635z M298.214,161.442v-2.109h7.312v-2.25h3.234v2.25h7.312v2.109h-7.312v1.828h9v2.109
			h-21.094v-2.109h8.859v-1.828H298.214z M301.87,168.895v2.109h10.688v-2.109H301.87z"/>
		<path style="fill:#32ABE2;" d="M335.507,172.27c-0.281-0.468-0.844-1.217-1.688-2.25c-0.376-0.468-0.657-0.844-0.844-1.125
			c4.405-3.28,7.499-7.031,9.281-11.25l3.656,1.547C343.288,164.444,339.818,168.803,335.507,172.27z M336.211,184.786l-0.984-3.375
			c0.373,0,0.936-0.046,1.688-0.141c0.749,0,1.266,0,1.547,0c3.656-5.062,6.842-10.266,9.562-15.609l3.938,1.828
			c-2.626,4.219-5.579,8.719-8.859,13.5l14.344-0.844c-0.657-0.844-1.596-2.015-2.812-3.516c-0.844-1.217-1.501-2.109-1.969-2.672
			l2.953-1.969c1.688,2.063,4.311,5.298,7.875,9.703c0.936,1.03,1.639,1.828,2.109,2.391l-3.375,2.25l-2.391-3.094
			c-3.564,0.187-9.095,0.562-16.594,1.125C340.148,184.55,337.803,184.691,336.211,184.786z M365.32,171.005
			c-5.533-3.656-9.422-8.343-11.672-14.062h-8.719v-2.953h11.531c2.342,5.814,6.093,10.266,11.25,13.359
			c-0.095,0.095-0.235,0.281-0.422,0.562C366.445,169.317,365.788,170.35,365.32,171.005z"/>
		<path style="fill:#32ABE2;" d="M377.019,162.567v-3.516h3.938v-6.188h3.375v6.188h3.797v3.516h-3.797v6.047l3.516-0.703
			c-0.095,1.406-0.095,2.58,0,3.516l-3.516,0.844v9.562c0.092,2.718-1.079,4.078-3.516,4.078c-0.844,0.092-1.969,0.141-3.375,0.141
			c-0.095-0.752-0.235-1.736-0.422-2.953c-0.095-0.376-0.141-0.611-0.141-0.703c0.281,0,1.076,0,2.391,0
			c1.217,0.092,1.779-0.422,1.688-1.547v-7.594l-4.219,1.125l-0.281-3.938c1.406-0.281,2.904-0.608,4.5-0.984v-6.891H377.019z
			 M408.8,186.051c-4.408-1.22-7.829-2.58-10.266-4.078c-2.721,1.779-6.188,3.234-10.406,4.359
			c-0.189-0.376-0.471-0.938-0.844-1.688c-0.471-0.752-0.798-1.314-0.984-1.688c3.748-0.749,6.891-1.874,9.422-3.375
			c-2.158-1.969-3.938-4.546-5.344-7.734l1.547-0.844h-2.391v-3.234h18.422v3.375c-1.501,3.375-3.61,6.236-6.328,8.578
			c2.531,1.406,5.576,2.391,9.141,2.953c-0.376,0.562-0.938,1.498-1.688,2.812C408.987,185.77,408.892,185.957,408.8,186.051z
			 M389.254,166.786c-0.657-1.03-1.314-2.015-1.969-2.953c3.186-1.217,4.641-3.421,4.359-6.609v-3.094h12.516v5.625
			c-0.095,1.314,0.422,1.923,1.547,1.828h0.562c0.749,0.095,1.171-0.373,1.266-1.406c0-0.092,0-0.232,0-0.422
			c0.187-0.654,0.281-1.406,0.281-2.25c0.281,0.095,0.703,0.235,1.266,0.422c0.749,0.376,1.312,0.611,1.688,0.703
			c-0.095,0.938-0.235,1.969-0.422,3.094c-0.471,2.25-1.642,3.375-3.516,3.375h-2.25c-2.439,0-3.656-1.452-3.656-4.359v-3.234
			h-6.047C395.16,162.005,393.283,165.098,389.254,166.786z M403.879,171.005h-10.125c1.312,2.626,2.953,4.83,4.922,6.609
			C401.017,175.645,402.754,173.444,403.879,171.005z"/>
		<path style="fill:#32ABE2;" d="M421.626,157.926v-3.656h30.375v3.656h-13.219v13.359h14.906v3.656h-14.906v11.391h-3.938v-11.391
			h-14.906v-3.656h14.906v-13.359H421.626z M428.798,169.598c-1.969-2.531-4.032-5.014-6.188-7.453l2.812-2.25
			c2.25,2.345,4.359,4.781,6.328,7.312L428.798,169.598z M444.266,169.739l-2.812-2.391c2.061-2.061,4.219-4.546,6.469-7.453
			l2.953,2.109C448.717,164.725,446.516,167.302,444.266,169.739z"/>
		<path style="fill:#32ABE2;" d="M465.529,167.77l-1.828-3.656l3.797-0.141c3.748-4.029,6.891-7.875,9.422-11.531l4.219,1.828
			c-1.877,2.25-4.781,5.438-8.719,9.562c1.779-0.092,4.451-0.232,8.016-0.422c3.467-0.092,6.093-0.187,7.875-0.281l-4.219-4.219
			l2.812-2.109c3.938,3.656,7.312,6.985,10.125,9.984l-3.094,2.391c-0.281-0.281-0.703-0.749-1.266-1.406
			c-0.562-0.562-0.984-0.984-1.266-1.266c-6.188,0.095-13.219,0.33-21.094,0.703C468.341,167.302,466.746,167.489,465.529,167.77z
			 M467.076,186.333v-15.75h25.875v15.75h-3.938v-2.109h-18.141v2.109H467.076z M470.873,174.098v6.891h18.141v-6.891H470.873z"/>
	</g>
	<g>
		<g>
			<g>
				<path style="fill:none;" d="M104.069,64.745l-30.291,57.957v0.946c0,8.777,2.998,16.228,8.997,22.351
					c5.998,6.125,13.101,9.187,21.309,9.187c5.24,0,10.023-1.199,14.349-3.6c4.324-2.399,8.112-6.092,11.365-11.081
					c3.251-4.987,4.877-10.607,4.877-16.858v-1.06l-29.844-57.844H104.069z"/>
			</g>
			<g>
				<path style="fill:#FFFFFF;" d="M153.429,50.296c-0.822-0.725-2.178-1.089-4.073-1.089h-29.36c-1.894,0-3.253,0.364-4.073,1.089
					c-0.821,0.727-1.231,1.69-1.231,2.889c0,1.2,0.41,2.163,1.231,2.889c0.82,0.727,2.178,1.089,4.073,1.089h14.68v43.555
					L112.081,56.79H97.202l-23.423,44.785V57.163h14.68c1.894,0,3.251-0.362,4.073-1.089c0.82-0.725,1.231-1.689,1.231-2.889
					c0-1.199-0.411-2.162-1.231-2.889c-0.821-0.725-2.178-1.089-4.073-1.089h-29.36c-1.894,0-3.22,0.317-3.978,0.947
					c-0.885,0.821-1.326,1.832-1.326,3.031c0,1.2,0.41,2.163,1.231,2.889c0.82,0.727,2.178,1.089,4.073,1.089h6.724v59.623v6.863
					c0,3.934,0.531,7.689,1.569,11.274c0.961,3.32,2.356,6.494,4.209,9.514c3.85,6.283,8.523,10.972,14.017,14.065
					c5.493,3.093,11.775,4.641,18.847,4.641c10.543,0,19.541-3.788,26.992-11.366c4.739-4.82,7.965-10.372,9.69-16.648
					c0.986-3.59,1.486-7.414,1.486-11.48v-7.464V57.163h6.724c1.894,0,3.251-0.362,4.073-1.089c0.82-0.725,1.231-1.689,1.231-2.889
					C154.66,51.986,154.248,51.023,153.429,50.296z M134.676,123.649c0,6.25-1.626,11.871-4.877,16.858
					c-3.253,4.988-7.041,8.682-11.365,11.081c-4.326,2.4-9.108,3.6-14.349,3.6c-8.208,0-15.311-3.062-21.309-9.187
					c-5.999-6.124-8.997-13.575-8.997-22.351v-0.946l30.291-57.957h0.763l29.844,57.844V123.649z"/>
			</g>
		</g>
		<g>
			<path style="fill:#FFFFFF;" d="M178.836,157.821c-0.551-0.663-1.25-1.136-2.099-1.42c-0.846-0.284-2.245-0.427-4.197-0.427
				h-8.266l-17.468-33.399v1.152v6.863c0,3.659-0.465,7.162-1.365,10.519l7.769,14.865h-15.374H70.618H59.562h-4.318l7.769-14.865
				c-0.9-3.357-1.365-6.86-1.365-10.519v-6.863v-1.152L44.18,155.974h-8.266c-1.951,0-3.35,0.142-4.197,0.427
				c-0.849,0.284-1.548,0.758-2.099,1.42c-0.552,0.663-0.827,1.373-0.827,2.131c0,0.758,0.274,1.468,0.827,2.131
				c0.551,0.663,1.25,1.136,2.099,1.42c0.846,0.285,2.245,0.427,4.197,0.427h23.648h16.157h57.016h21.924h17.881
				c1.951,0,3.35-0.142,4.197-0.427c0.849-0.284,1.548-0.758,2.099-1.42c0.552-0.663,0.827-1.373,0.827-2.131
				C179.663,159.194,179.388,158.483,178.836,157.821z"/>
		</g>
	</g>
	<g>
		<circle style="fill:#EAB628;" cx="405.472" cy="97.06" r="13.498"/>
	</g>
</g>
</svg>
